<?xml version="1.0" standalone="no"?>
<!DOCTYPE svg PUBLIC "-//W3C//DTD SVG 20010904//EN"
 "http://www.w3.org/TR/2001/REC-SVG-20010904/DTD/svg10.dtd">
<svg version="1.0" xmlns="http://www.w3.org/2000/svg"
 width="512.000000pt" height="512.000000pt" viewBox="0 0 512.000000 512.000000"
 preserveAspectRatio="xMidYMid meet">
<metadata>
Created by potrace 1.14, written by Peter Selinger 2001-2017
</metadata>
<g transform="translate(0.000000,512.000000) scale(0.100000,-0.100000)"
fill="#000000" stroke="none">
<path d="M745 5099 c-76 -37 -89 -58 -140 -216 l-34 -107 -113 -113 -113 -113
-110 -35 c-60 -19 -124 -44 -142 -55 -49 -30 -86 -92 -89 -151 -4 -95 5 -107
232 -336 l211 -212 -67 -135 c-114 -230 -208 -521 -236 -731 -3 -27 -8 -52 -9
-55 -16 -26 -24 -415 -12 -557 66 -794 518 -1513 1214 -1931 286 -172 643
-296 943 -327 30 -4 62 -9 70 -12 8 -3 110 -6 225 -8 320 -4 547 30 832 124
166 55 291 112 468 211 146 82 350 237 491 376 122 120 135 139 120 184 -11
33 -10 38 26 86 36 48 41 51 82 51 25 0 50 6 58 14 34 35 148 226 209 349 96
194 169 410 213 630 14 72 18 100 33 240 14 129 6 561 -11 589 -2 3 -7 26 -10
51 -20 144 -73 338 -139 510 -116 298 -321 611 -548 839 -403 403 -897 651
-1449 726 -180 25 -532 25 -662 0 -12 -3 -40 -7 -63 -10 -242 -35 -491 -115
-738 -239 l-127 -64 -210 209 c-116 115 -223 215 -238 221 -47 19 -124 18
-167 -3z"/>
</g>
</svg>
